<svg xmlns="http://www.w3.org/2000/svg" version="1.1" xmlns:xlink="http://www.w3.org/1999/xlink" xmlns:svgjs="http://svgjs.dev/svgjs" width="1500" height="1687" viewBox="0 0 1500 1687"><g transform="matrix(1,0,0,1,0.00011015625000254659,0)"><svg viewBox="0 0 320 360" data-background-color="#6d6d6d" preserveAspectRatio="xMidYMid meet" height="1687" width="1500" xmlns="http://www.w3.org/2000/svg" xmlns:xlink="http://www.w3.org/1999/xlink"><g id="tight-bounds" transform="matrix(1,0,0,1,0.000023499999997511622,0)"><svg viewBox="0 0 320 360" height="360" width="320"><g><svg></svg></g><g><svg viewBox="0 0 320 360" height="360" width="320"><g><path transform="translate(-74.99272,-51.79039) scale(4.65793,4.65793)" d="M20.6 59.9l0.8 1-0.4-1.3c-0.1-0.6-0.8 0.1-0.4 0.3M21.5 59.3c0.3 0.5 0.6 1 0.6 1.5 0 0.7 0.6 1 1.1 1.2-0.7-0.8-1.1-3-1.7-2.7M59.9 16.9c1.7 0 3.3-0.2 5.1 0.2 4.4 1.1 8.1 3.3 10.6 6.4l7 11.2c0.3 2.8 0.9 5.9 0.8 9.3 0.7 0 0.6-1 1.4-1.2-0.8 2-1.2 4.5-1.4 7.4-0.5-1.6 0-4 0.1-5.3-0.7 1.1-1.1 0.3-1.1-0.2 0.1-0.8-0.3-0.7-0.6-1-1.1-1-1.8-2.1-2.6-3.8 0.5-1.3 0.6-3.2-1-4.2-0.5-0.3-1.1-0.8-1.4-1.6-0.4-1.1-1.1-2.4-0.9-4.1 0.1-0.5-1.5 1.1-2.4 0.4-3.9-2.7-7.8-5.8-12.5-8.4-2.5 0-4.3-0.9-5.2-2-0.8-1-0.2-2.3 1-2.4 0.7 0 1.5-0.2 2.1 0.2 0.1-0.4 0.5-0.9 1-0.9M50 14.6l0.2 0.1c1 0.2 1.5 1.6 2.6 1.1 0 0.7 0.1 1.4-0.1 1.9-0.3 0.8-1.2 0.8-1.9 0.8-6.7-0.4-10.6 2.4-14.7 4.8-1.1 0.7-2.3 1.2-3.2 2.1-4.3 4-9 7.7-10.1 15.1l-0.9 8.2c-0.1 0.9-1.1 1.8-0.9 2.9l0.7 4.9c-0.7-0.7-1.1 0.2-0.9 0.6 0.1 0.3 0.5 1.3 1.1 0.4 0.8 1.5 1.6 4.4 2.7 5.7 3.4 4 7.8 7.6 11.4 11.2 0.9-0.2 1.6-0.2 1.8-0.8 0.3 0.6-0.3 1.2-0.8 1.3 1.6 1 3.4 1.9 5.8 2.1 3.1 0.2 6 0.7 8.7 1.4 1.4-0.4 2.8-0.6 4.3-0.7 0.5 0 0.8-0.8 1.4-1l0.1-1c0.6 0.9 0.5-0.3 0.1-0.9 0.7 0.6 0.9 1.1 1.2 1.5 0-0.3 0.8-1.4 0.8-0.1l0.2-1.3c0.3-0.2 0.4 1.1 0.7 0.2 0.3-0.9 0.9-0.2 1.5-0.5-0.2 0.4-0.1 1.2 0.6 0.7l0.8-0.7c0.5 1.2 1.3 0.7 1.7 0.5 4.4-2.8 8.8-6.1 13-9.4l-0.1 1.3 0.5-1.6c0.5 0.5 0.9 0.1 1.1-0.2 0.6-1 1.4-2 2.7-2.9-1.6 4.3-3.5 7.7-5.9 10.5l-1 1.2c0 0.7-0.2 1.6-1 1.7-0.4 0.1-1.2-0.2-1.8 0.4-0.3 0.4 0.7 1.2-0.1 0.6-0.7-0.5-1.4 0-2.2 0.2-0.6 0.2 0.4 0.8 0.6 1.2 0.2 0.4 0.4 0.8 0.3 1.3l-1.1-1.2c-1.3 0.7-2.1 2-3.2 3-0.5 0.4-0.3 1.1-0.3 1.7-0.7 0-1.5-0.2-1.9 0.2-0.3 0.4-0.2 1-0.2 1.6-1-0.1-1.1-1.6-2-1.3-0.9 0.2-1.9 0.3-2.7 0.8 0.6 1.2-1 0.5-0.8 0.7-1.5-0.9-2.8-1.6-4.4-1-3.4-1.1-7.6-0.6-10.7-0.2 0-0.5 0.1-1-0.1-1.1-0.2 0.5-0.8 0.3-0.7 0.3-1.9-1.3-3.8-2.1-5.8-3.2-1.8 0.2-3.5-0.7-4-1.2-1.4-1.3-3-0.6-4.3-0.9-2.8-0.7-3.8-3.6-4.1-5.6-0.2-1-1-1.4-1.3-1.3-1.3-4.2-3.3-8-4.9-11.9-0.4-1-0.3-2-0.3-3.1 0.5 0.2 1 0.1 0.9-0.6-0.5-3.3-1.7-5.8-3-8.2 0.7-3.4 0.8-7.4 2.4-10.4 1.4-2.7 4-4.1 5.8-6.4 0.6-0.8 0.6-1.9 1.2-2.6 2-2 4-4.1 6.2-5.9 1-0.8 2.2 0 3.7-0.3 0.5-1.8 2.5-3.4 4.4-2.9 0.8 0.2 2.4-1.9 2.9-2.1 0.8-0.3 0.4 0.8 0.4 1.5 1.9-1.5 4.5-2.3 6.9-3.2" fill="#d2d6dc" fill-rule="nonzero" stroke="none" stroke-width="1" stroke-linecap="butt" stroke-linejoin="miter" stroke-miterlimit="10" stroke-dasharray="" stroke-dashoffset="0" font-family="none" font-weight="none" font-size="none" text-anchor="none" style="mix-blend-mode: normal" data-fill-palette-color="tertiary"></path></g><g transform="matrix(1,0,0,1,64,118.82619288315753)"><svg viewBox="0 0 192 122.34761423368494" height="122.34761423368494" width="192"><g><svg viewBox="0 0 192 122.34761423368494" height="122.34761423368494" width="192"><g><svg viewBox="0 0 192 122.34761423368494" height="122.34761423368494" width="192"><g transform="matrix(1,0,0,1,0,71.82129844421125)"><svg viewBox="0 0 192 50.526315789473685" height="50.526315789473685" width="192"><g id="textblocktransform"><svg viewBox="0 0 192 50.526315789473685" height="50.526315789473685" width="192" id="textblock"><g><svg viewBox="0 0 192 50.526315789473685" height="50.526315789473685" width="192"><g transform="matrix(1,0,0,1,0,0)"><svg width="192" viewBox="2.5 -37.5 189.98 50" height="50.526315789473685" data-palette-color="#d2d6dc"><path d="M5.15-33.95L2.5-34.25 2.55-35 13.25-35Q24.05-35 24.05-26.55L24.05-26.55Q24.05-23.3 19.75-19.45L19.75-19.45Q26.1-17.9 26.1-10.35L26.1-10.35Q26.1-4.45 23.13-2.23 20.15 0 14 0L14 0 12.55 0 2.5 0.05 2.55-0.65 5.15-1Q5.65-1.05 5.75-1.65L5.75-1.65 5.75-33.25Q5.65-33.9 5.15-33.95L5.15-33.95ZM15-19.15L15-19.15 9.15-19.15 9.15-0.75 13.75-0.75Q22.7-0.75 22.7-10.15L22.7-10.15Q22.7-14.95 20.78-17.05 18.85-19.15 15-19.15ZM9.15-19.9L15.25-19.9Q17.1-19.9 18.45-19.7L18.45-19.7Q20.65-23.15 20.65-26.25L20.65-26.25Q20.65-34.25 13-34.25L13-34.25 9.15-34.25 9.15-19.9ZM40.52 0.2Q35.3 0.2 32.07-2.8 28.85-5.8 28.85-11.98 28.85-18.15 32.27-21.68 35.7-25.2 40.9-25.2 46.1-25.2 49.35-22.2 52.6-19.2 52.6-13.03 52.6-6.85 49.17-3.33 45.75 0.2 40.52 0.2ZM40.85-24.3Q37.1-24.3 34.6-21.05 32.1-17.8 32.1-12.23 32.1-6.65 34.47-3.68 36.85-0.7 40.6-0.7 44.35-0.7 46.85-3.95 49.35-7.2 49.35-12.75 49.35-18.3 46.97-21.3 44.6-24.3 40.85-24.3ZM77.5-35.45L77.5-35.45 77.5-2.6Q77.5-1.05 78.3-1.05L78.3-1.05 81.3-0.9 81.25-0.15Q78.84 0.25 76.25 0.25L76.25 0.25Q75.69 0.2 75.07-0.3 74.44-0.8 74.34-1.6L74.34-1.6Q71.5 0.2 67.75 0.2L67.75 0.2Q64.09 0.2 60.99-1.85L60.99-1.85Q59.24-3 58.17-5.48 57.09-7.95 57.09-11.5L57.09-11.5Q57.09-18.05 60.45-21.5L60.45-21.5Q63.99-25.2 68.55-25.2L68.55-25.2Q71.34-25.2 74.25-23.75L74.25-23.75 74.25-35.7Q74.25-36.25 73.94-36.25L73.94-36.25 70.89-36.35 70.94-37.05Q74.09-37.5 75.27-37.5 76.44-37.5 76.97-36.85 77.5-36.2 77.5-35.45ZM68.39-0.7L68.39-0.7Q71.44-0.7 74.25-2.05L74.25-2.05 74.25-22.95Q72.05-24.3 69.89-24.3L69.89-24.3Q65.59-24.3 62.97-21 60.34-17.7 60.34-11.55L60.34-11.55Q60.34-0.7 68.39-0.7ZM100.34 12.45L89.79 12.5 89.69 11.8 94.34 11.2Q94.69 11.15 94.79 10.5L94.79 10.5 96.44 0 94.79 0 86.44-23.25 86.39-23.3Q86.14-23.9 85.59-24L85.59-24 83.34-24.2Q83.29-24.5 83.29-24.95L83.29-24.95 93.79-25Q93.79-24.95 93.84-24.25L93.84-24.25 89.94-23.95 97.34-1.3 106.64-23.3Q106.79-23.6 106.47-23.8 106.14-24 105.79-24.05L105.79-24.05 103.59-24.2Q103.54-24.5 103.54-24.95L103.54-24.95 112.69-25Q112.69-24.95 112.74-24.25L112.74-24.25 108.29-23.8 97.79 0 95.89 11.45 100.24 11.7Q100.34 12.4 100.34 12.45L100.34 12.45ZM116.44-34.4L116.44-34.4 116.54-35 126.94-35Q133.09-35 136.06-32.9 139.04-30.8 139.04-24.98 139.04-19.15 135.97-16.38 132.89-13.6 126.94-13.6L126.94-13.6 123.09-13.6 123.09-0.95 126.54-0.75Q126.54-0.7 126.49 0L126.49 0 116.49 0.05Q116.49-0.4 116.54-0.65L116.54-0.65 119.14-1Q119.49-1.05 119.69-1.45L119.69-1.45 119.69-33.45Q119.49-33.9 119.14-33.95L119.14-33.95 116.49-34.25Q116.44-34.3 116.44-34.4ZM126.69-34.25L126.69-34.25 123.09-34.25 123.09-14.35 126.69-14.35Q131.19-14.35 133.41-16.75 135.64-19.15 135.64-24.78 135.64-30.4 133.44-32.33 131.24-34.25 126.69-34.25ZM148.59-22.95L148.59-22.95 148.59-1 152.34-0.75Q152.34-0.7 152.29 0L152.29 0 142.29 0.05Q142.29-0.4 142.34-0.65L142.34-0.65 144.94-1Q145.24-1 145.34-1.45L145.34-1.45 145.34-23.4Q145.24-23.75 145.04-23.75L145.04-23.75 142.04-23.85 142.09-24.55Q144.79-25 146.19-25 147.59-25 148.09-24.35 148.59-23.7 148.59-22.95ZM146.89-31.7Q145.89-31.7 145.34-32.33 144.79-32.95 144.79-33.98 144.79-35 145.36-35.63 145.94-36.25 146.94-36.25 147.94-36.25 148.56-35.63 149.19-35 149.19-33.93 149.19-32.85 148.54-32.27 147.89-31.7 146.89-31.7ZM160.34-11.5L160.34-11.5Q160.34-0.7 168.74-0.7L168.74-0.7Q170.94-0.7 173.44-1.18 175.94-1.65 176.64-2.05L176.64-2.05 176.99-1.55Q175.84-0.8 173.21-0.3 170.59 0.2 168.41 0.2 166.24 0.2 164.51-0.25 162.78-0.7 160.99-1.85 159.19-3 158.14-5.45 157.09-7.9 157.09-11.45L157.09-11.45Q157.09-18.05 160.49-21.55L160.49-21.55Q164.03-25.2 168.74-25.2 173.44-25.2 175.91-22.6 178.39-20 178.39-15.3L178.39-15.3Q178.39-14.3 178.24-13.15L178.24-13.15 160.39-13.15Q160.34-12.6 160.34-11.5ZM175.44-15.65L175.44-15.65Q175.44-19.4 173.78-21.78 172.14-24.15 169.28-24.15L169.28-24.15Q165.59-24.15 163.03-20.9L163.03-20.9Q160.99-18.35 160.49-14.1L160.49-14.1 175.39-14.1Q175.44-14.65 175.44-15.65ZM192.43 0L182.38 0.05 182.43-0.65 185.03-1Q185.38-1.05 185.48-1.5L185.48-1.5 185.48-35.7Q185.48-36.25 185.18-36.25L185.18-36.25 182.13-36.35 182.18-37.05Q185.33-37.5 186.51-37.5 187.68-37.5 188.21-36.85 188.73-36.2 188.73-35.45L188.73-35.45 188.73-1 192.48-0.75Q192.48-0.7 192.43 0L192.43 0Z" opacity="1" transform="matrix(1,0,0,1,0,0)" fill="#d2d6dc" class="wordmark-text-0" data-fill-palette-color="primary" id="text-0"></path></svg></g></svg></g></svg></g></svg></g><g transform="matrix(1,0,0,1,36.672,0)"><svg viewBox="0 0 118.656 64.4482963389481" height="64.4482963389481" width="118.656"><g><svg xmlns="http://www.w3.org/2000/svg" xmlns:xlink="http://www.w3.org/1999/xlink" version="1.1" x="0" y="0" viewBox="7.917455738442837 27.14300000000001 84.16554426155716 45.71472102630872" enable-background="new 0 0 100 100" xml:space="preserve" height="64.4482963389481" width="118.656" class="icon-icon-0" data-fill-palette-color="accent" id="icon-0"><g fill="#97978d" data-fill-palette-color="accent"><polygon fill="none" points="26.644,66.384 27.763,68.096 29.097,66.241 27.978,64.528  "></polygon><polygon fill="none" points="25.947,61.91 24.612,63.766 25.732,65.479 27.066,63.623  "></polygon><polygon fill="none" points="22.577,66.398 23.697,68.111 25.03,66.256 23.911,64.543  "></polygon><polygon fill="none" points="18.386,66.85 19.505,68.562 20.84,66.707 19.721,64.994  "></polygon><polygon fill="none" points="21.756,62.36 20.422,64.215 21.542,65.929 22.875,64.073  "></polygon><polygon fill="none" points="28.598,63.805 29.717,65.518 31.051,63.662 29.932,61.949  "></polygon><polygon fill="none" points="17.871,62.289 16.538,64.145 17.657,65.857 18.991,64.002  "></polygon><polygon fill="none" points="33.129,63.91 34.249,65.624 35.583,63.769 34.464,62.057  "></polygon><polygon fill="none" points="43.206,67.174 44.325,68.887 45.659,67.031 44.54,65.319  "></polygon><polygon fill="none" points="45.242,64.541 46.361,66.254 47.694,64.398 46.575,62.686  "></polygon><polygon fill="none" points="39.351,62.439 38.017,64.295 39.136,66.008 40.47,64.152  "></polygon><polygon fill="none" points="39.588,66.98 40.708,68.692 42.042,66.838 40.922,65.125  "></polygon><polygon fill="none" points="42.958,62.491 41.624,64.347 42.743,66.059 44.078,64.203  "></polygon><polygon fill="none" points="42.334,61.494 41.215,59.781 39.881,61.637 41,63.35  "></polygon><polygon fill="none" points="14.501,66.777 15.621,68.49 16.955,66.635 15.835,64.922  "></polygon><polygon fill="none" points="24.708,61.712 23.587,60.059 22.254,61.85 23.374,63.505  "></polygon><polygon fill="none" points="20.822,61.641 19.703,59.986 18.369,61.779 19.489,63.434  "></polygon><polygon fill="none" points="28.157,57.88 28.156,57.837 28.155,57.88  "></polygon><polygon fill="none" points="45.909,61.843 44.79,60.188 43.456,61.98 44.576,63.636  "></polygon><polygon fill="none" points="17.068,61.707 15.948,60.053 14.615,61.846 15.734,63.5  "></polygon><polygon fill="none" points="10.747,66.844 11.866,68.557 13.201,66.701 12.082,64.989  "></polygon><polygon fill="none" points="14.117,62.355 12.783,64.211 13.902,65.924 15.236,64.068  "></polygon><polygon fill="none" points="10.51,62.305 9.175,64.16 10.294,65.873 11.629,64.018  "></polygon><polygon fill="none" points="13.494,61.358 12.375,59.646 11.04,61.501 12.159,63.214  "></polygon><path fill="none" d="M28.156 39.709c2.842 0 5.145-1.318 5.145-2.944 0-0.218-0.054-0.429-0.133-0.633-0.522 1.31-2.565 2.287-5.012 2.287-2.454 0-4.502-0.983-5.017-2.298-0.082 0.208-0.128 0.422-0.128 0.645C23.011 38.391 25.314 39.709 28.156 39.709z"></path><polygon fill="none" points="69.541,61.91 68.206,63.766 69.326,65.479 70.66,63.623  "></polygon><polygon fill="none" points="70.238,66.384 71.357,68.096 72.691,66.241 71.572,64.528  "></polygon><polygon fill="none" points="72.192,63.805 73.312,65.518 74.646,63.662 73.526,61.949  "></polygon><polygon fill="none" points="65.351,62.36 64.017,64.215 65.136,65.929 66.47,64.073  "></polygon><polygon fill="none" points="66.171,66.398 67.291,68.111 68.624,66.256 67.505,64.543  "></polygon><polygon fill="none" points="76.724,63.91 77.843,65.624 79.178,63.769 78.059,62.057  "></polygon><polygon fill="none" points="86.8,67.174 87.919,68.887 89.253,67.031 88.134,65.319  "></polygon><polygon fill="none" points="61.98,66.85 63.1,68.562 64.435,66.707 63.315,64.994  "></polygon><polygon fill="none" points="88.836,64.541 89.955,66.254 91.288,64.398 90.169,62.686  "></polygon><polygon fill="none" points="82.945,62.439 81.611,64.295 82.73,66.008 84.064,64.152  "></polygon><polygon fill="none" points="83.183,66.98 84.302,68.692 85.636,66.838 84.517,65.125  "></polygon><polygon fill="none" points="86.553,62.491 85.218,64.347 86.337,66.059 87.672,64.203  "></polygon><polygon fill="none" points="60.662,61.707 59.542,60.053 58.209,61.846 59.328,63.5  "></polygon><polygon fill="none" points="85.929,61.494 84.81,59.781 83.476,61.637 84.595,63.35  "></polygon><polygon fill="none" points="89.503,61.843 88.384,60.188 87.05,61.98 88.17,63.636  "></polygon><polygon fill="none" points="64.416,61.641 63.297,59.986 61.963,61.779 63.083,63.434  "></polygon><polygon fill="none" points="68.302,61.712 67.182,60.059 65.849,61.85 66.968,63.505  "></polygon><polygon fill="none" points="61.465,62.289 60.132,64.145 61.251,65.857 62.585,64.002  "></polygon><polygon fill="none" points="71.751,57.88 71.75,57.837 71.749,57.88  "></polygon><polygon fill="none" points="58.096,66.777 59.215,68.49 60.549,66.635 59.43,64.922  "></polygon><polygon fill="none" points="57.711,62.355 56.377,64.211 57.496,65.924 58.83,64.068  "></polygon><polygon fill="none" points="54.104,62.305 52.77,64.16 53.889,65.873 55.224,64.018  "></polygon><polygon fill="none" points="54.341,66.844 55.46,68.557 56.795,66.701 55.676,64.989  "></polygon><polygon fill="none" points="57.088,61.358 55.969,59.646 54.634,61.501 55.753,63.214  "></polygon><path d="M28.156 56.439c0.798 0 19.538-0.075 19.538-6.562 0-0.515-0.118-0.989-0.336-1.425-0.612-4.565-6.412-10.521-14.146-12.44 0.056-0.175 0.089-0.354 0.089-0.538 0-0.27-0.066-0.531-0.185-0.779-0.408-0.851-1.464-1.546-2.847-1.904 0.001-0.006 0.001-0.014 0.002-0.021l0.779-1.97-1.447-3.657h-2.895L25.261 30.8l0.779 1.97c0.001 0.007 0.001 0.015 0.002 0.021-1.364 0.353-2.412 1.036-2.83 1.872-0.13 0.258-0.201 0.53-0.201 0.812 0 0.174 0.031 0.343 0.081 0.509-7.671 1.824-13.285 7.479-13.863 12.008-0.393 0.559-0.611 1.185-0.611 1.886C8.618 56.364 27.358 56.439 28.156 56.439zM23.139 36.12c0.515 1.315 2.563 2.298 5.017 2.298 2.446 0 4.489-0.978 5.012-2.287 0.079 0.205 0.133 0.415 0.133 0.633 0 1.626-2.303 2.944-5.145 2.944s-5.145-1.318-5.145-2.944C23.011 36.542 23.057 36.328 23.139 36.12z" fill="#97978d" data-fill-palette-color="accent"></path><path d="M47.989 53.001c0 0-3.284 4.44-14.819 4.886V57.88h-4.014c-0.331-0.013-0.659-0.024-1-0.043l0.001 0.043h-0.002l0.001-0.043c-0.341 0.019-0.669 0.03-1 0.043h-4.219c-11.372-0.488-14.614-4.879-14.614-4.879v1.193C6.848 71.31 9.871 72.786 9.871 72.786s0.738 0.431 2.95-0.835c1.841-1.055 10.988-1.916 13.999-2.176h2.672c3.011 0.26 12.158 1.121 13.999 2.176 2.212 1.266 2.95 0.835 2.95 0.835s3.022-1.477 1.548-18.592V53.001zM44.79 60.188l1.119 1.654-1.333 1.793-1.12-1.655L44.79 60.188zM41.215 59.781l1.119 1.713L41 63.35l-1.119-1.713L41.215 59.781zM23.587 60.059l1.12 1.653-1.334 1.793-1.119-1.655L23.587 60.059zM19.703 59.986l1.119 1.654-1.333 1.793-1.12-1.654L19.703 59.986zM15.948 60.053l1.12 1.654L15.734 63.5l-1.119-1.654L15.948 60.053zM12.375 59.646l1.119 1.713-1.335 1.855-1.119-1.713L12.375 59.646zM9.175 64.16l1.335-1.855 1.119 1.713-1.335 1.855L9.175 64.16zM11.866 68.557l-1.119-1.713 1.335-1.854 1.119 1.712L11.866 68.557zM12.783 64.211l1.334-1.855 1.119 1.713-1.334 1.855L12.783 64.211zM15.621 68.49l-1.119-1.713 1.334-1.855 1.119 1.713L15.621 68.49zM16.538 64.145l1.333-1.855 1.12 1.713-1.334 1.855L16.538 64.145zM19.505 68.562l-1.119-1.712 1.335-1.855 1.119 1.713L19.505 68.562zM20.422 64.215l1.334-1.854 1.119 1.713-1.334 1.855L20.422 64.215zM23.697 68.111l-1.12-1.713 1.334-1.855 1.119 1.713L23.697 68.111zM24.612 63.766l1.335-1.855 1.119 1.713-1.334 1.855L24.612 63.766zM27.763 68.096l-1.119-1.712 1.334-1.855 1.119 1.713L27.763 68.096zM29.717 65.518l-1.119-1.713 1.334-1.855 1.119 1.713L29.717 65.518zM34.249 65.624l-1.119-1.714 1.335-1.854 1.119 1.712L34.249 65.624zM38.017 64.295l1.334-1.855 1.119 1.713-1.334 1.855L38.017 64.295zM40.708 68.692l-1.119-1.712 1.334-1.855 1.119 1.713L40.708 68.692zM41.624 64.347l1.335-1.855 1.119 1.712-1.335 1.855L41.624 64.347zM44.325 68.887l-1.119-1.713 1.334-1.854 1.119 1.712L44.325 68.887zM46.361 66.254l-1.119-1.713 1.333-1.855 1.119 1.713L46.361 66.254z" fill="#97978d" data-fill-palette-color="accent"></path><path d="M91.583 53.961c0.323-0.468 0.5-0.964 0.5-1.488 0-2.91-5.342-4.977-12.053-5.906-0.043 0.352-0.143 0.676-0.258 0.962 6.923 0.94 11.311 3.022 11.311 4.944 0 2.392-6.8 5.031-16.831 5.407H72.75c-0.331-0.013-0.659-0.024-1-0.043l0.001 0.043h-0.002l0.001-0.043c-0.341 0.019-0.669 0.03-1 0.043h-1.379c-10.029-0.376-16.828-3.016-16.828-5.407 0-0.424 0.233-0.855 0.641-1.281-0.003-0.002-0.008-0.006-0.011-0.009-0.251-0.218-0.486-0.467-0.7-0.714-0.597 0.613-0.93 1.282-0.93 2.004 0 0.449 0.134 0.877 0.374 1.285v0.437c-1.475 17.115 1.548 18.592 1.548 18.592s0.738 0.431 2.95-0.835c1.841-1.055 10.988-1.916 13.999-2.176h2.672c3.011 0.26 12.158 1.121 13.999 2.176 2.212 1.266 2.95 0.835 2.95 0.835s3.022-1.477 1.548-18.592V53.961zM88.384 60.188l1.119 1.654-1.333 1.793-1.12-1.655L88.384 60.188zM84.81 59.781l1.119 1.713-1.334 1.855-1.119-1.713L84.81 59.781zM67.182 60.059l1.12 1.653-1.334 1.793-1.119-1.655L67.182 60.059zM63.297 59.986l1.119 1.654-1.333 1.793-1.12-1.654L63.297 59.986zM59.542 60.053l1.12 1.654L59.328 63.5l-1.119-1.654L59.542 60.053zM55.969 59.646l1.119 1.713-1.335 1.855-1.119-1.713L55.969 59.646zM52.77 64.16l1.335-1.855 1.119 1.713-1.335 1.855L52.77 64.16zM55.46 68.557l-1.119-1.713 1.335-1.854 1.119 1.712L55.46 68.557zM56.377 64.211l1.334-1.855 1.119 1.713-1.334 1.855L56.377 64.211zM59.215 68.49l-1.119-1.713 1.334-1.855 1.119 1.713L59.215 68.49zM60.132 64.145l1.333-1.855 1.12 1.713-1.334 1.855L60.132 64.145zM63.1 68.562L61.98 66.85l1.335-1.855 1.119 1.713L63.1 68.562zM64.017 64.215l1.334-1.854 1.119 1.713-1.334 1.855L64.017 64.215zM67.291 68.111l-1.12-1.713 1.334-1.855 1.119 1.713L67.291 68.111zM68.206 63.766l1.335-1.855 1.119 1.713-1.334 1.855L68.206 63.766zM71.357 68.096l-1.119-1.712 1.334-1.855 1.119 1.713L71.357 68.096zM73.312 65.518l-1.119-1.713 1.334-1.855 1.119 1.713L73.312 65.518zM77.843 65.624l-1.119-1.714 1.335-1.854 1.119 1.712L77.843 65.624zM81.611 64.295l1.334-1.855 1.119 1.713-1.334 1.855L81.611 64.295zM84.302 68.692l-1.119-1.712 1.334-1.855 1.119 1.713L84.302 68.692zM85.218 64.347l1.335-1.855 1.119 1.712-1.335 1.855L85.218 64.347zM87.919 68.887L86.8 67.174l1.334-1.854 1.119 1.712L87.919 68.887zM89.955 66.254l-1.119-1.713 1.333-1.855 1.119 1.713L89.955 66.254z" fill="#97978d" data-fill-palette-color="accent"></path><path d="M69.191 55.873c-1.261-2.516-4.907-8.395-14.095-15.77 0 0 9.815 5.297 15.679 15.191 0.548-1.938 4.942-19.844-20.645-17.388C50.13 37.906 50.704 60.238 69.191 55.873z" fill="#97978d" data-fill-palette-color="accent"></path><path d="M70.962 43.656c1.25-3.249 2.498-5.28 2.498-5.28-0.875 2.257-1.546 4.308-2.059 6.153 1.436 3.156 1.543 6.932 0.756 10.302 11.948-5.481 3.979-20.125 3.979-20.125-3.787 1.729-6.438 3.542-8.245 5.348C69.105 41.006 70.15 42.191 70.962 43.656z" fill="#97978d" data-fill-palette-color="accent"></path></g></svg></g></svg></g><g></g></svg></g></svg></g></svg></g></svg></g><defs></defs></svg><rect width="320" height="360" fill="none" stroke="none" visibility="hidden"></rect></g></svg></g></svg>